<?xml version="1.0" encoding="UTF-8"?>
<svg id="Layer_1" data-name="Layer 1" xmlns="http://www.w3.org/2000/svg" viewBox="0 0 32.24 32.39">
  <defs>
    <style>
      .cls-1 {
        fill: #040505;
      }
    </style>
  </defs>
  <path class="cls-1" d="M15.1.02c11.8-.59,20.29,10.94,16.04,22.03-4.48,11.68-19.93,14.03-27.69,4.13C-4.53,16.02,2.16.66,15.1.02ZM26.24,26.2c5.6-5.64,5.43-15.18-.47-20.55C21.07,1.37,13.81.67,8.42,4.09.57,9.08-.32,20.47,6.53,26.73c5.76,5.27,14.23,4.98,19.71-.54h0Z"/>
  <path class="cls-1" d="M15.97,4.56l-.29,1.97,1.44-.04.25-1.92,2.01.1-.24,2.03c1.95.47,3.57,1.85,4.63,3.51l-3.06,2.69c-.2-.71-.36-1.33-.84-1.91-1.6-1.92-4.7-1.57-6.32.16-2.16,2.32-3.22,8.98.25,10.54,2.22,1,4.79.09,5.93-2.03.14-.25.22-.53.34-.77.02-.04-.01-.07.07-.05l2.43,2.43c-1.19,2.11-3.23,3.54-5.6,4.05l-.31,2.42-1.97-.08.29-2.26c-.49,0-.96-.11-1.43-.16l-.34,2.33-2-.12.4-2.82c-3.75-1.9-4.42-6.68-3.59-10.43.68-3.07,2.58-5.9,5.53-7.16l.37-2.6,2.05.12h0Z"/>
</svg>