<?xml version="1.0" encoding="UTF-8"?>
<svg id="Layer_2" data-name="Layer 2" xmlns="http://www.w3.org/2000/svg" viewBox="0 0 258.8 359.42">
  <path d="M149.8,80.13v-40.74l-20.4,12.42-20.4-12.42v40.74c6.35,3.94,12.92,8.58,20.4,14.25,7.48-5.67,14.05-10.31,20.4-14.25Z"/>
  <path d="M194.8,114.04v-37.79c-9.96,2.34-18.1,5.04-25.5,8.47-3.11,1.44-6.08,3.01-9,4.73v42.02c2.99-2.06,5.99-3.96,9-5.71,8.52-4.97,17.07-8.78,25.5-11.72Z"/>
  <polygon points="194.8 300.59 194.8 269.42 175.78 269.42 169.3 279.46 165.98 284.6 169.3 286.44 194.8 300.59"/>
  <path d="M239.51,95.1c-7.89.57-16.18,1.59-24.71,3.35v-51.13c-3.15.56-6.14,1.12-9,1.68-3.9.78-7.54,1.56-11,2.38-9.57,2.28-17.66,4.83-25.5,8.14V0l-9,5.49-10.5,6.39-20.4,12.42-20.4-12.42-10.5-6.39-9-5.49v59.52c-7.84-3.31-15.93-5.86-25.5-8.14-3.46-.82-7.1-1.6-11-2.38-2.86-.56-5.85-1.12-9-1.68v51.13c-8.53-1.76-16.82-2.78-24.71-3.35-3.51-.26-6.95-.43-10.29-.54-3.08-.1-6.09-.15-9-.18v184.04h44v62.5l9-5,11-6.1,25.5-14.15,9-5,10.5,16.57,20.4,32.18,20.4-32.18,10.5-16.57,9,5,25.5,14.15,11,6.1,9,5v-62.5h44V94.38c-2.91.03-5.92.08-9,.18-3.34.11-6.78.28-10.29.54ZM249.8,269.42h-44v56.05l-11-6.1-25.5-14.15-9-5-10.5,16.26-20.4,31.58-20.4-31.58-10.5-16.26-9,5-25.5,14.15-11,6.1v-56.05H9V103.92c3.32.22,6.76.49,10.29.83,7.82.76,16.12,1.89,24.71,3.73,2.97.63,5.97,1.35,9,2.17v-52.23c3.9.97,7.55,1.92,11,2.88,9.82,2.71,17.98,5.44,25.5,8.65,3.08,1.32,6.06,2.71,9,4.22V16.61l10.5,6.39,20.4,12.42,20.4-12.42,10.5-6.39v57.56c2.94-1.51,5.92-2.9,9-4.22,7.52-3.21,15.68-5.94,25.5-8.65,3.45-.96,7.1-1.91,11-2.88v52.23c3.03-.82,6.03-1.54,9-2.17,8.59-1.84,16.89-2.97,24.71-3.73,3.53-.34,6.97-.61,10.29-.83v165.5Z"/>
  <path d="M169.3,255.92h25.5v-125.1c-8.18,3.24-16.87,7.56-25.5,13.32-3.02,2-6.02,4.18-9,6.55v100.98h-10.5v-91.64c-7.17,7.11-13.97,15.5-20.03,25.43h-.74c-6.06-9.93-12.86-18.32-20.03-25.43v91.64h-10.5v-100.98c-2.98-2.37-5.98-4.55-9-6.55-8.63-5.76-17.32-10.08-25.5-13.32v125.1h25.5l9,13.94,5.51,8.53,4.99-2.77,20.4-11.32,20.4,11.32,4.99,2.77,5.51-8.53,9-13.94Z"/>
  <path d="M205.8,126.96v128.96h33.71V121.03s-10.08,0-24.71,3.48c-2.84.68-5.85,1.48-9,2.45Z"/>
  <path d="M129.4,159.67c6.63-7.82,13.46-14.52,20.4-20.26v-42.94c-6.33,4.69-12.86,10.3-20.4,17.12-7.54-6.82-14.07-12.43-20.4-17.12v42.94c6.94,5.74,13.77,12.44,20.4,20.26Z"/>
  <path d="M98.5,131.47v-42.02c-2.92-1.72-5.89-3.29-9-4.73-7.4-3.43-15.54-6.13-25.5-8.47v37.79c8.43,2.94,16.98,6.75,25.5,11.72,3.01,1.75,6.01,3.65,9,5.71Z"/>
  <polygon points="112.93 292.2 129.4 317.7 145.87 292.2 129.4 283.06 112.93 292.2"/>
  <polygon points="83.02 269.42 64 269.42 64 300.59 89.5 286.44 92.82 284.6 89.5 279.46 83.02 269.42"/>
  <path d="M44,124.51c-14.63-3.48-24.69-3.48-24.71-3.48v134.89h33.71V126.96c-3.15-.97-6.16-1.77-9-2.45Z"/>
</svg>