<svg width="990" height="1372" xmlns="http://www.w3.org/2000/svg" xmlns:xlink="http://www.w3.org/1999/xlink" xml:space="preserve" overflow="hidden"><defs><clipPath id="clip0"><rect x="2407" y="439" width="990" height="1372"/></clipPath></defs><g clip-path="url(#clip0)" transform="translate(-2407 -439)"><rect x="2407" y="439" width="990" height="1372" fill="#FFFFFF" fill-opacity="0"/><path d="M2448.87 630.918 3345.83 630C3368.73 630.426 3386.39 645.796 3394.94 666.083 3396.87 972.377 3398.8 1280.18 3393.95 1586.21 3385.17 1606.89 3364.47 1618.43 3342.55 1620L2461.05 1620C2431.86 1617.38 2407.98 1600.07 2407 1569.2L2407 680.798C2407.62 656.349 2425.28 636.03 2448.87 630.918ZM3357.16 1552.69 3357.16 687.484C3357.16 683.518 3345.76 670.278 3339.31 672.572L2470.82 672.572C2462.53 668.672 2446.44 685.484 2446.44 690.761L2446.44 1552.69C2446.44 1556.29 2454.44 1557.37 2457.74 1557.76 2481.72 1560.58 2524.44 1558.81 2549.77 1557.76 2635.99 1554.06 2782.66 1535.51 2802.05 1429.98 2819.38 1335.5 2726.6 1358.7 2724.7 1424.9 2723.69 1460.53 2752.09 1429.16 2762.77 1446.24 2779.45 1472.85 2696.6 1508.21 2679.07 1513.46 2579.74 1543.12 2474.78 1499.2 2463.22 1388.49 2460.14 1359.03 2459.78 1289.81 2467.74 1262.71 2473.9 1241.7 2483.3 1220.4 2508.69 1226.66 2506.43 1188.38 2478.09 1107.07 2544.69 1121.79 2541.94 1100.68 2552.62 1037.53 2579.05 1036.25 2587.11 1035.86 2601.13 1043.99 2607.2 1034.35 2621.87 1011.08 2602.35 936.688 2600.41 907.061 2597.14 856.394 2602.67 825.031 2638.38 787.834 2680.22 744.246 2740.99 723.534 2800.25 739.92 2855.84 755.291 2910.55 826.276 2835.2 860.229 2786.13 882.35 2726.93 869.241 2747.77 803.958 2726.54 795.109 2701.64 807.17 2696.73 829.881 2672.16 943.374 2806.01 1152.92 2849.88 1260.48 2857.87 1280.05 2863.18 1310.95 2871.5 1327.34 2873.89 1331.99 2875.92 1335.96 2882.05 1334.81L2882.05 1002.17C2882.05 1000.43 2860.76 987.453 2856.23 978.833 2838.9 945.602 2862 902.866 2900.07 901.949 2947.9 900.834 2972.86 958.842 2937.41 992.008 2932.43 996.662 2921.36 999.612 2921.36 1000.53L2921.36 1334.81C2925.03 1334.32 2928.77 1336.78 2931.48 1332.88 2935.35 1327.34 2947.93 1277.72 2953.56 1263.76 2997.33 1155.12 3070.25 1046.35 3099.93 931.706 3108.45 898.77 3126.5 810.939 3079.49 801.303 3048.57 794.978 3062.26 815.002 3061.44 830.897 3057.54 906.668 2888.83 861.605 2942.85 784.393 3009.35 689.352 3176.92 744.344 3200.83 843.777 3214.79 901.818 3180.88 980.997 3194.68 1030.29 3199.69 1048.21 3223.11 1031.11 3235.82 1038.22 3251.38 1046.94 3262.95 1104.26 3258.79 1121.76 3327.22 1107.2 3300.2 1187.27 3294.82 1226.6 3319.69 1221.35 3329.32 1238.07 3335.77 1259.37 3348.16 1300.4 3345.31 1391.02 3330.07 1430.64 3298.56 1512.6 3209.55 1537.35 3129.55 1514.8 3109.57 1509.16 3050.5 1482.45 3044.01 1462.72 3031.47 1424.54 3072.78 1448.6 3078.58 1442.9 3095.51 1366.54 2983.31 1327.5 3001.43 1426.64 3021.34 1535.84 3163.82 1553.86 3253.71 1557.7 3279.03 1558.78 3321.75 1560.55 3345.73 1557.7 3349.56 1557.24 3355.72 1556.88 3357.03 1552.62ZM2924.74 1370.8 2878.87 1370.8 2878.87 1428.15C2878.87 1451.74 2858.27 1504.15 2841.17 1521.52 2824.06 1538.89 2784.52 1553.86 2774.14 1565.89 2770.57 1570.05 2769.91 1571.5 2770.76 1577.26L3036.12 1577.26C3028.32 1556.36 2997.76 1549.05 2980.66 1536.07 2949.63 1512.57 2924.74 1460.4 2924.74 1421.59L2924.74 1370.8Z" fill-rule="evenodd"/></g></svg>